{"title":"I.Can.See.You.[2008].DvdRip.XviD-KnÃƒÂ£","uid":6471917,"size":1174888448,"categoryP":"video","categoryS":"movies","magnet":"?xt=urn:btih:efb11097a1dd921e2f20b7be3106d8031f521e4f&amp;dn=I.Can.See.You.%5B2008%5D.DvdRip.XviD-Kn%C3%83%C2%A3&amp;tr=udp%3A%2F%2Ftracker.openbittorrent.com%3A80&amp;tr=udp%3A%2F%2Fopen.demonii.com%3A1337&amp;tr=udp%3A%2F%2Ftracker.coppersurfer.tk%3A6969&amp;tr=udp%3A%2F%2Fexodus.desync.com%3A6969","seeders":0,"leechers":1,"uploader":"Jon.Pson","files":1,"time":1308171659,"description":"Three young ad-men enter the woods for a photo shoot, but a girlfriend's mysterious disappearance sparks a harrowing descent into unreality.\n\n\nGeneral\nComplete name                    : H:\\Movies\\I.Can.See.You.[2008].DvdRip.XviD-KnÃƒÂ£\\I.Can.See.You.[2008].DvdRip.XviD-KnÃƒÂ£.avi\nFormat                           : AVI\nFormat/Info                      : Audio Video Interleave\nFile size                        : 1.09 GiB\nDuration                         : 1h 42mn\nOverall bit rate                 : 1 524 Kbps\nWriting application              : VirtualDubMod 1.5.4.1 (build 2178/release)\nWriting library                  : VirtualDubMod build 2178/release\n\nVideo\nID                               : 0\nFormat                           : MPEG-4 Visual\nFormat profile                   : Advanced Simple@L5\nFormat settings, BVOP            : Yes\nFormat settings, QPel            : No\nFormat settings, GMC             : No warppoints\nFormat settings, Matrix          : Custom\nCodec ID                         : XVID\nCodec ID/Hint                    : XviD\nDuration                         : 1h 42mn\nBit rate                         : 1 154 Kbps\nWidth                            : 608 pixels\nHeight                           : 352 pixels\nDisplay aspect ratio             : 16:9\nFrame rate                       : 23.976 fps\nColor space                      : YUV\nChroma subsampling               : 4:2:0\nBit depth                        : 8 bits\nScan type                        : Progressive\nBits/(Pixel*Frame)               : 0.225\nStream size                      : 848 MiB (76%)\nWriting library                  : XviD 1.2.1 (UTC 2008-12-04)\n\nAudio\nID                               : 1\nFormat                           : AC-3\nFormat/Info                      : Audio Coding 3\nMode extension                   : CM (complete main)\nCodec ID                         : 2000\nDuration                         : 1h 37mn\nBit rate mode                    : Constant\nBit rate                         : 384 Kbps\nChannel(s)                       : 6 channels\nChannel positions                : Front: L C R, Side: L R, LFE\nSampling rate                    : 48.0 KHz\nBit depth                        : 16 bits\nStream size                      : 267 MiB (24%)\nAlignment                        : Split accross interleaves\nInterleave, duration             : 101 ms (2.43 video frames)\nInterleave, preload duration     : 96 ms\nLanguage                         : English\n\n","torrent":{"xt":"urn:btih:efb11097a1dd921e2f20b7be3106d8031f521e4f","amp;dn":"I.Can.See.You.%5B2008%5D.DvdRip.XviD-Kn%C3%83%C2%A3","amp;tr":["udp%3A%2F%2Ftracker.openbittorrent.com%3A80","udp%3A%2F%2Fopen.demonii.com%3A1337","udp%3A%2F%2Ftracker.coppersurfer.tk%3A6969","udp%3A%2F%2Fexodus.desync.com%3A6969"],"infoHash":"efb11097a1dd921e2f20b7be3106d8031f521e4f","infoHashBuffer":{"type":"Buffer","data":[239,177,16,151,161,221,146,30,47,32,183,190,49,6,216,3,31,82,30,79]},"announce":[],"urlList":[]}}